<svg xmlns="http://www.w3.org/2000/svg" width="227.31" height="40.09" viewBox="0 0 227.31 40.09"><defs><style>.a{fill:#202121;}.b{fill:#040000;}</style></defs><title>logo-bk-ryu</title><path class="a" d="M5.62,6c.12-1.72,1.43-6,1.93-6,.94-.1,4.37,4.74,5,4.88,1,.14,5.49-.78,7.83-.64,3,.18,6.06.35,7.63.91.41.14,5-3.75,6.25-3.75s.2,4.85.07,6.36,3.11,2.25,4.33,7.77c1.92,8.66-.07,16.29-5.43,21-4.41,3.84-15.54,4.66-21.51,2.2C-.77,33.54-.71,22.82.54,16.7S5.5,7.77,5.62,6Z"/><path class="b" d="M88.77,27.23c-.4,0-.71-.13-1.32-.66a29,29,0,0,0-3.17-2.38,14,14,0,0,1-6.84,6.94l-.05-.08a23.51,23.51,0,0,0,5.12-7.92,15.47,15.47,0,0,0-6.21-1.87c-.71,1.45-3.59,7.37-6.07,7.37-1.48,0-2.35-2.24-2.35-3.51,0-3.38,4.3-4.83,7.18-5a62.15,62.15,0,0,0,2.77-7.76.37.37,0,0,0-.37-.34c-.61,0-2.75,1.87-3.3,1.87a2.66,2.66,0,0,1-1.8-2.46A1.66,1.66,0,0,1,73,10a1.73,1.73,0,0,0,1.48,1.29,14.18,14.18,0,0,0,3.51-1,6.28,6.28,0,0,1,1.24-.42c.55,0,1.82,1,1.82,1.72,0,.37-.13.55-.74,1.29C79.45,14,77.2,19.42,77,20a24.7,24.7,0,0,1,6.15,1.37,12.44,12.44,0,0,0,.55-2.72,4,4,0,0,0-1-2.3,2.38,2.38,0,0,1,.92-.21,3.13,3.13,0,0,1,2.51,2.43,19.8,19.8,0,0,1-1,3.64C87,23,89.8,24.51,89.8,26,89.8,27,89.11,27.23,88.77,27.23ZM74,21.27c-.58,0-4.91.77-4.91,3.33a2,2,0,0,0,1.43,2.09c1,0,3.46-4.25,3.93-5.36A1.46,1.46,0,0,0,74,21.27Z"/><path class="b" d="M119.79,21.85a9.07,9.07,0,0,1-4.7-1.27v-.18a3.64,3.64,0,0,0,1.14.11c1.72,0,6.47-.24,6.47-3.54a2.42,2.42,0,0,0-2.59-2.46c-1.37,0-5.1,1.06-9.37,3.8.37.58,2.09,3.19,2.43,3.75,1.16,1.87,3.43,5.94,3.43,7.58,0,1-.63,1.45-1.14,1.45-.77,0-1.08-.48-1.45-1.61a43.47,43.47,0,0,0-4.59-10.3,19,19,0,0,0-2.69,2.24,1.92,1.92,0,0,1-1.32.61,2.55,2.55,0,0,1-2.51-2.48,1.3,1.3,0,0,1,.34-1c.77.87,1.11,1,1.51,1,.61,0,.74-.05,3.75-1.77-.24-.32-1.37-1.72-1.58-2a2,2,0,0,1-.34-1.11c0-1.43,1.45-1.53,2.19-1.56.34,0,3.59-.32,3.78-.42a.27.27,0,0,0,.13-.21c0-.53-1.27-1.14-3-2a6.07,6.07,0,0,1,1.66-.21c2,0,4.44.84,4.44,2.88a.86.86,0,0,1-.84,1,3.92,3.92,0,0,1-1.21-.29,13.8,13.8,0,0,0-3.14-.32c-.79,0-2,.05-2,.9a1.73,1.73,0,0,0,.26.77c.37.58.92,1.48,1.14,1.82a26.37,26.37,0,0,1,2.88-1.45A19.1,19.1,0,0,1,120,13.74c2.51,0,4.86,1.21,4.86,3.8C124.84,19.44,123.33,21.85,119.79,21.85Z"/><path class="b" d="M149.53,31.78v-.18c2.85-.58,7.34-3.06,7.34-7.26a4.75,4.75,0,0,0-3.62-4.83,25.32,25.32,0,0,1-4.86,6.65c.63,1.11.71,1.21.71,1.61s-.21,1.4-1,1.4-1.32-1.06-1.51-1.51c-2.93,2.22-4.62,2.51-5.1,2.51A1.7,1.7,0,0,1,140,29a3.91,3.91,0,0,0-.84-1.11,1.45,1.45,0,0,1-.32-1c0-2.46,2.9-5.54,6.6-7.23a34.23,34.23,0,0,1,.34-3.72,12.3,12.3,0,0,1-2.8.34c-2.22,0-3.19-1-3.38-2a6.61,6.61,0,0,0,2.83.4,19.36,19.36,0,0,0,3.64-.5c.05-.42.4-2.22.4-2.59,0-1.37-.42-1.64-1.66-2.38a2.58,2.58,0,0,1,1.56-.48c.87,0,2.85.92,2.85,1.93,0,.34-.08.48-.61,1.48a11.91,11.91,0,0,0-.61,1.53,12.26,12.26,0,0,0,3.06-1.19,1.5,1.5,0,0,1,.79-.21c.77,0,1.85.55,1.85,1.11s-.24.55-1.27,1a41.14,41.14,0,0,1-5,1.21A18.08,18.08,0,0,0,147,19a15.59,15.59,0,0,1,4-.71,4.13,4.13,0,0,0-.63-1.45,2.31,2.31,0,0,1,.53-.05,2.62,2.62,0,0,1,2.38,1.61c3.49.55,6.15,2.83,6.15,6.15S156.6,31.43,149.53,31.78Zm-4.09-11.17c-3.54,2.06-4.91,5.7-4.91,6.79a1,1,0,0,0,1.14,1.11,8.07,8.07,0,0,0,4.52-2.17A25.38,25.38,0,0,1,145.43,20.61Zm5.15-1.4a10.74,10.74,0,0,0-3.56.66,15.52,15.52,0,0,0,.74,4.78c2.59-2.9,3.14-4.91,3.25-5.44Z"/><path class="b" d="M184.12,30.9c-5.1,0-5.1-3.3-5.1-7.18,0-1.77.32-9.51.32-11.06,0-1.08-.34-1.56-.77-1.82a4,4,0,0,0-1.61-.66,2.86,2.86,0,0,1,2.19-.87c1,0,3.14,1,3.14,2.11,0,.37-.42,1.93-.48,2.24a88.6,88.6,0,0,0-1,12.09c0,1.5.13,3.22,2.61,3.22,3.54,0,8.11-1.9,12.25-4.91l.08.13C193.83,28.13,188.68,30.9,184.12,30.9Zm4.33-14.55a1.2,1.2,0,0,1-1-.66,11.12,11.12,0,0,0-2.59-3.25c3.3.55,4.41,1.82,4.41,2.88A1,1,0,0,1,188.45,16.36Zm2.61-2.19c-.48,0-.58-.16-1.48-1.35a11.65,11.65,0,0,0-2.35-2.38c2.22.32,4.67,1.19,4.67,2.69C191.9,13.48,191.69,14.16,191.06,14.16Z"/><path class="b" d="M226.49,29.56c-.58,0-.79-.13-2.69-1.51a10.5,10.5,0,0,0-3.06-1.48c-.21,2-.92,3.86-4.78,3.86-2,0-4.65-1.06-4.65-2.9,0-2.3,2.83-3.46,7.18-3.25A27.18,27.18,0,0,1,218.2,19c0-.74,0-5.62,0-5.91,0-1.24,0-2.22-2.4-2.4a2.33,2.33,0,0,1,2-1.06c1.14,0,3.12.77,3.12,1.85a5,5,0,0,1-.24,1.11,13.87,13.87,0,0,0-.55,2.4,27.35,27.35,0,0,0,3.62-1,4,4,0,0,1,1.35-.29c.24,0,1.48,0,1.48,1.08a.88.88,0,0,1-.34.71,11.34,11.34,0,0,1-4.33,1.08A3.42,3.42,0,0,1,220,16c-.05.53-.13,1.56-.13,2.9a27.76,27.76,0,0,0,.58,5.73,14.22,14.22,0,0,1,6,2.27,1.55,1.55,0,0,1,.84,1.45C227.31,29.24,226.89,29.56,226.49,29.56Zm-10.22-3.75c-.13,0-3.93,0-3.93,1.51,0,1.08,2.11,1.24,3.17,1.24,2.67,0,3-1.21,3.09-2.53A16.33,16.33,0,0,0,216.28,25.81Z"/></svg>